<svg width="116" height="116" viewBox="0 0 116 116" fill="none" xmlns="http://www.w3.org/2000/svg">
<g clip-path="url(#clip0_293_703)">
<path d="M23 48.7008C23 60.4701 32.5409 70.0109 44.3101 70.0109L76.2754 70.0109C79.5446 70.0109 82.1949 67.3607 82.1949 64.0914L82.1948 23.8389C82.1948 17.3005 76.8944 12 70.3559 12L28.9195 12C25.6502 12 23 14.6502 23 17.9195L23 48.7008Z" fill="#FFF1DA"/>
<rect x="31.7764" y="22.4" width="49.5529" height="70.2" fill="#D9D9D9"/>
<path d="M42.7882 89.8195C48.1932 89.8195 52.5749 85.4379 52.5749 80.0328C52.5749 74.6278 48.1932 70.2461 42.7882 70.2461C37.3831 70.2461 33.0015 74.6278 33.0015 80.0328C33.0015 85.4379 37.3831 89.8195 42.7882 89.8195Z" fill="#ED1B2F"/>
<path d="M103.174 37.61V37.4173C103.039 36.8275 102.727 36.2932 102.28 35.8863C101.832 35.4794 101.27 35.2195 100.67 35.1415C100.071 35.0635 99.4612 35.1712 98.9244 35.4502C98.3876 35.7291 97.9492 36.1658 97.6682 36.7015L96.5808 38.6011L95.7962 38.1468C95.7068 38.0976 95.6014 38.086 95.5034 38.1143C95.4053 38.1427 95.3225 38.2089 95.2731 38.2982L91.5567 44.63L89.6572 43.5426C89.5642 43.5065 89.4611 43.5065 89.3681 43.5426C89.2657 43.5683 89.177 43.6324 89.1203 43.7215C89.0938 43.7664 89.0766 43.8162 89.0699 43.8679C89.0631 43.9196 89.067 43.9722 89.0811 44.0223C89.0953 44.0725 89.1195 44.1193 89.1522 44.1599C89.185 44.2005 89.2257 44.234 89.2717 44.2583L91.1575 45.3458L85.1836 55.7106L84.399 57.0871L79.8154 65.0431L77.2001 72.1456L75.8236 74.7059C75.5352 75.2025 75.3961 75.7718 75.4229 76.3455C75.4498 76.9192 75.6415 77.473 75.975 77.9406L76.3604 78.4912L72.0934 83.7493C72.3877 83.8089 72.6928 83.7851 72.9743 83.6805C73.2413 83.5684 73.4774 83.3937 73.6626 83.1712L77.0074 78.8353L77.5717 78.9729C77.8273 79.0442 78.0911 79.0812 78.3563 79.0831C78.8765 79.0829 79.3876 78.947 79.839 78.6887C80.2905 78.4303 80.6667 78.0586 80.9303 77.6102L82.2104 75.4629L84.3853 72.8201L85.1699 71.8566L87.152 69.4478L98.618 49.544L100.518 50.6314C100.767 50.774 100.986 50.9647 101.162 51.1925C101.337 51.4202 101.466 51.6805 101.54 51.9583C101.614 52.2361 101.633 52.5258 101.594 52.8108C101.556 53.0957 101.461 53.3702 101.316 53.6183L96.1954 62.5654C96.1559 62.6039 96.1244 62.6499 96.103 62.7007C96.0815 62.7516 96.0704 62.8062 96.0704 62.8613C96.0704 62.9165 96.0815 62.9711 96.103 63.022C96.1244 63.0728 96.1559 63.1188 96.1954 63.1573C96.2896 63.186 96.3902 63.186 96.4844 63.1573C96.5833 63.1316 96.6705 63.0734 96.7322 62.9921L101.977 54.0588C102.369 53.3807 102.477 52.5752 102.279 51.8175C102.08 51.0597 101.591 50.4109 100.917 50.012L99.0034 48.9108L102.665 42.5653C102.715 42.4738 102.727 42.3664 102.698 42.266C102.67 42.1657 102.604 42.0805 102.513 42.0285L101.743 41.6706L102.83 39.7848C103.22 39.1311 103.343 38.3522 103.174 37.61ZM80.3522 77.2386C80.2029 77.4906 80.0038 77.7097 79.7672 77.8824C79.5306 78.0551 79.2613 78.178 78.9757 78.2434L78.5628 78.326H78.2875L77.2001 77.9406C76.7544 77.6304 76.44 77.1655 76.3178 76.6364C76.1957 76.1073 76.2747 75.5517 76.5394 75.0775L77.6406 73.178L81.4396 75.3528L80.3522 77.2386ZM81.7975 74.7059L77.9296 72.476L80.3935 65.8827L86.2848 69.2L81.7975 74.7059ZM86.7115 68.6356L80.7101 65.0706L91.9008 45.6761L97.8472 49.1723L86.7115 68.6356ZM101.77 42.4965L98.3014 48.5529L92.3413 45.0292L95.81 39.014L101.77 42.4965ZM102.156 39.2618L101.068 41.1751L97.269 39.0002L98.3565 37.1007C98.5024 36.8445 98.7002 36.6216 98.9373 36.4462C99.1743 36.2708 99.4453 36.1468 99.7329 36.0821C100.147 35.9746 100.584 35.9909 100.989 36.1292C101.395 36.2674 101.75 36.5215 102.013 36.86C102.275 37.1984 102.432 37.6063 102.465 38.0333C102.498 38.4602 102.404 38.8873 102.197 39.2618H102.156ZM69.4093 79.1794L70.7857 82.6343C70.9499 83.0482 71.2717 83.3799 71.6804 83.5566C71.8101 83.5986 71.944 83.6263 72.0796 83.6392L70.7031 80.198C70.5857 79.9417 70.4056 79.7191 70.1795 79.5507C69.9534 79.3823 69.6885 79.2735 69.4093 79.2345V79.1794ZM67.7024 79.964L66.4499 82.0838H66.6013C66.8664 82.0626 67.1225 81.9777 67.3477 81.8363C67.573 81.6949 67.7608 81.5012 67.8952 81.2716L69.1753 79.1656C68.9482 79.1517 68.7212 79.1943 68.5146 79.2895C68.1696 79.4346 67.8835 79.6916 67.7024 80.0191V79.964ZM63.4354 73.7423H63.2977C62.9698 73.7704 62.6572 73.8933 62.398 74.0962C62.1389 74.2991 61.9445 74.5732 61.8387 74.8848L58.7003 84.3412C58.6699 84.4379 58.6789 84.5428 58.7253 84.6329C58.7717 84.7231 58.8517 84.7914 58.9481 84.8229C59.2372 84.8229 59.3886 84.8229 59.4436 84.6165L62.5957 75.1188L64.3301 75.3253L64.7843 80.5559C64.8072 80.8451 64.9041 81.1236 65.0656 81.3646C65.2271 81.6057 65.4478 81.8012 65.7066 81.9324L65.1422 75.2427C65.0945 74.8255 64.8933 74.4409 64.5779 74.1636C64.2625 73.8864 63.8553 73.7362 63.4354 73.7423ZM70.6894 80.2118C70.5805 79.9469 70.4058 79.7143 70.1817 79.5361C69.9577 79.3578 69.6918 79.2397 69.4093 79.1932L70.7857 82.6481C70.9499 83.062 71.2717 83.3937 71.6804 83.5704C71.8101 83.6123 71.944 83.64 72.0796 83.6529L70.6894 80.2118ZM68.5146 79.2895C68.1759 79.4239 67.8906 79.6657 67.7024 79.9778L66.4499 82.0975H66.6013C66.8664 82.0763 67.1225 81.9914 67.3477 81.85C67.573 81.7086 67.7608 81.5149 67.8952 81.2854L69.1753 79.1794C68.9459 79.174 68.7187 79.2261 68.5146 79.3308V79.2895ZM65.1422 75.1601C65.076 74.7579 64.867 74.3931 64.5534 74.1327C64.2399 73.8722 63.8429 73.7336 63.4354 73.7423H63.2977C62.9698 73.7704 62.6572 73.8933 62.398 74.0962C62.1389 74.2991 61.9445 74.5732 61.8387 74.8848L58.7003 84.3412C58.6699 84.4379 58.6789 84.5428 58.7253 84.6329C58.7717 84.7231 58.8517 84.7914 58.9481 84.8229C59.2372 84.8229 59.3886 84.8229 59.4436 84.6165L62.5957 75.1188L64.3301 75.3253L64.7843 80.5559C64.8072 80.8451 64.9041 81.1236 65.0656 81.3646C65.2271 81.6057 65.4478 81.8012 65.7066 81.9324L65.1422 75.1601Z" fill="black"/>
<path d="M102.156 39.2617L101.068 41.175L97.269 39.0002L98.3565 37.1007C98.5024 36.8445 98.7002 36.6216 98.9373 36.4462C99.1743 36.2708 99.4453 36.1468 99.7329 36.0821C100.147 35.9745 100.584 35.9909 100.989 36.1292C101.395 36.2674 101.75 36.5215 102.013 36.86C102.275 37.1984 102.432 37.6063 102.465 38.0332C102.498 38.4602 102.404 38.8873 102.197 39.2617H102.156Z" fill="#ED1B2F"/>
<path d="M48.3631 77.7479L43.8346 82.304C43.5176 82.6175 43.0897 82.7934 42.6439 82.7934C42.1981 82.7934 41.7702 82.6175 41.4533 82.304L38.7003 79.551C38.6287 79.4745 38.5889 79.3737 38.5889 79.2689C38.5889 79.1641 38.6287 79.0632 38.7003 78.9867C38.7745 78.916 38.8731 78.8766 38.9756 78.8766C39.0313 78.8744 39.0868 78.8858 39.1371 78.9097C39.1875 78.9337 39.2313 78.9696 39.2647 79.0142L42.6233 82.3728L47.7988 77.211C47.8671 77.1563 47.9521 77.1265 48.0397 77.1265C48.1272 77.1265 48.2122 77.1563 48.2806 77.211C48.3244 77.2383 48.3617 77.2747 48.3902 77.3178C48.4186 77.3608 48.4373 77.4095 48.4452 77.4605C48.453 77.5115 48.4498 77.5635 48.4356 77.6132C48.4214 77.6628 48.3967 77.7087 48.3631 77.7479Z" fill="black"/>
<path d="M53.0153 80.0328C53.0061 82.2946 52.234 84.4871 50.824 86.2556C49.414 88.0241 47.4486 89.2652 45.2457 89.7781C43.0429 90.291 40.7314 90.0456 38.6852 89.0818C36.6391 88.1179 34.978 86.492 33.9706 84.4669C32.9632 82.4418 32.6686 80.1361 33.1342 77.9228C33.5999 75.7094 34.7987 73.718 36.5367 72.2705C38.2746 70.823 40.4501 70.0042 42.7112 69.9466C44.9722 69.889 47.1866 70.5959 48.996 71.9529C49.0769 72.0126 49.1312 72.1015 49.1475 72.2007C49.1656 72.279 49.1588 72.3611 49.128 72.4354C49.0972 72.5097 49.0439 72.5725 48.9756 72.615C48.9073 72.6575 48.8275 72.6775 48.7472 72.6723C48.6669 72.6672 48.5903 72.637 48.528 72.5861C46.9365 71.3997 45.0072 70.7534 43.0222 70.7416C40.5653 70.7416 38.209 71.7176 36.4718 73.4549C34.7345 75.1922 33.7585 77.5484 33.7585 80.0053C33.7585 82.4622 34.7345 84.8184 36.4718 86.5557C38.209 88.2929 40.5653 89.2689 43.0222 89.2689C45.4792 89.2617 47.8333 88.2814 49.5694 86.5428C51.3055 84.8041 52.2822 82.4485 52.2858 79.9915C52.303 79.9001 52.3516 79.8175 52.4233 79.7581C52.4949 79.6987 52.585 79.6661 52.6781 79.6661C52.7712 79.6661 52.8613 79.6987 52.9329 79.7581C53.0046 79.8175 53.0532 79.9001 53.0704 79.9915L53.0153 80.0328Z" fill="black"/>
<path d="M73.6075 33.0539C73.6041 33.155 73.5624 33.2511 73.4908 33.3226C73.4193 33.3941 73.3232 33.4359 73.2221 33.4393H39.7463C39.6428 33.4393 39.5433 33.3992 39.4688 33.3273C39.3944 33.2554 39.3507 33.1573 39.3472 33.0539V27.9059C39.3507 27.8024 39.3944 27.7044 39.4688 27.6325C39.5433 27.5606 39.6428 27.5204 39.7463 27.5205H73.2221C73.3136 27.5377 73.3961 27.5863 73.4556 27.6579C73.515 27.7296 73.5475 27.8197 73.5475 27.9128C73.5475 28.0058 73.515 28.096 73.4556 28.1676C73.3961 28.2392 73.3136 28.2878 73.2221 28.3051H40.1868V32.6685H73.2221C73.3232 32.6719 73.4193 32.7136 73.4908 32.7852C73.5624 32.8567 73.6041 32.9527 73.6075 33.0539Z" fill="black"/>
<path d="M69.7532 38.2019C69.7532 38.2537 69.7428 38.3049 69.7226 38.3526C69.7024 38.4003 69.6727 38.4434 69.6355 38.4794C69.5982 38.5154 69.5541 38.5435 69.5057 38.562C69.4574 38.5805 69.4058 38.5891 69.354 38.5873H43.614C43.5623 38.5891 43.5107 38.5805 43.4623 38.562C43.4139 38.5435 43.3698 38.5154 43.3326 38.4794C43.2953 38.4434 43.2657 38.4003 43.2454 38.3526C43.2252 38.3049 43.2148 38.2537 43.2148 38.2019C43.2148 38.096 43.2569 37.9945 43.3318 37.9196C43.4066 37.8448 43.5082 37.8027 43.614 37.8027H69.354C69.4599 37.8027 69.5614 37.8448 69.6363 37.9196C69.7111 37.9945 69.7532 38.096 69.7532 38.2019Z" fill="black"/>
<path d="M77.4752 47.1765C77.4717 47.2799 77.428 47.378 77.3536 47.4499C77.2791 47.5218 77.1796 47.5619 77.076 47.5619H48.762C48.7044 47.5727 48.645 47.5707 48.5882 47.556C48.5314 47.5413 48.4786 47.5143 48.4334 47.4768C48.3882 47.4394 48.3519 47.3924 48.3269 47.3393C48.302 47.2862 48.2891 47.2283 48.2891 47.1696C48.2891 47.1109 48.302 47.0529 48.3269 46.9998C48.3519 46.9467 48.3882 46.8998 48.4334 46.8623C48.4786 46.8249 48.5314 46.7978 48.5882 46.7831C48.645 46.7684 48.7044 46.7664 48.762 46.7773H77.076C77.1819 46.7773 77.2834 46.8193 77.3583 46.8942C77.4332 46.9691 77.4752 47.0706 77.4752 47.1765Z" fill="black"/>
<path d="M63.3114 54.9398C63.3079 55.0409 63.2662 55.1369 63.1947 55.2085C63.1231 55.28 63.0271 55.3217 62.926 55.3252H37.1722C37.1145 55.336 37.0552 55.334 36.9984 55.3193C36.9416 55.3046 36.8887 55.2776 36.8436 55.2401C36.7984 55.2027 36.762 55.1557 36.7371 55.1026C36.7122 55.0495 36.6992 54.9915 36.6992 54.9329C36.6992 54.8742 36.7122 54.8162 36.7371 54.7631C36.762 54.71 36.7984 54.6631 36.8436 54.6256C36.8887 54.5882 36.9416 54.5611 36.9984 54.5464C37.0552 54.5317 37.1145 54.5297 37.1722 54.5406H62.926C63.0294 54.5441 63.1275 54.5878 63.1994 54.6623C63.2713 54.7367 63.3114 54.8362 63.3114 54.9398Z" fill="black"/>
<path d="M77.4753 54.9398C77.4718 55.0432 77.4282 55.1412 77.3537 55.2132C77.2792 55.2851 77.1797 55.3252 77.0762 55.3252H68.0741C68.0164 55.336 67.957 55.334 67.9002 55.3193C67.8434 55.3046 67.7906 55.2776 67.7454 55.2401C67.7003 55.2027 67.6639 55.1557 67.639 55.1026C67.614 55.0495 67.6011 54.9915 67.6011 54.9329C67.6011 54.8742 67.614 54.8162 67.639 54.7631C67.6639 54.71 67.7003 54.6631 67.7454 54.6256C67.7906 54.5882 67.8434 54.5611 67.9002 54.5464C67.957 54.5317 68.0164 54.5297 68.0741 54.5406H77.0762C77.182 54.5406 77.2836 54.5826 77.3584 54.6575C77.4333 54.7324 77.4753 54.8339 77.4753 54.9398Z" fill="black"/>
<path d="M50.4413 61.3679C50.4379 61.4726 50.3947 61.5722 50.3206 61.6463C50.2465 61.7204 50.1469 61.7636 50.0421 61.767H37.1721C37.0674 61.7636 36.9678 61.7204 36.8937 61.6463C36.8195 61.5722 36.7764 61.4726 36.7729 61.3679C36.7729 61.3161 36.7833 61.2648 36.8035 61.2171C36.8238 61.1694 36.8534 61.1263 36.8907 61.0904C36.9279 61.0544 36.972 61.0263 37.0204 61.0077C37.0688 60.9892 37.1204 60.9806 37.1721 60.9825H50.0421C50.0939 60.9806 50.1455 60.9892 50.1938 61.0077C50.2422 61.0263 50.2863 61.0544 50.3236 61.0904C50.3609 61.1263 50.3905 61.1694 50.4107 61.2171C50.4309 61.2648 50.4413 61.3161 50.4413 61.3679Z" fill="black"/>
<path d="M64.6055 61.3679C64.6021 61.4726 64.5589 61.5722 64.4848 61.6463C64.4107 61.7204 64.3111 61.7636 64.2063 61.767H55.1767C55.0743 61.7603 54.9782 61.7156 54.907 61.6418C54.8357 61.568 54.7945 61.4704 54.7913 61.3679C54.7855 61.3139 54.7911 61.2593 54.8079 61.2077C54.8246 61.156 54.8521 61.1085 54.8885 61.0682C54.9248 61.0279 54.9693 60.9958 55.019 60.9739C55.0687 60.952 55.1224 60.9408 55.1767 60.9412H64.1926C64.2491 60.9368 64.3059 60.9449 64.359 60.965C64.412 60.9851 64.46 61.0166 64.4994 61.0574C64.5388 61.0981 64.5688 61.1471 64.5872 61.2008C64.6055 61.2544 64.6118 61.3115 64.6055 61.3679Z" fill="black"/>
<path d="M84.4128 57.9405V22.7441C84.4128 22.1673 84.1836 21.6141 83.7758 21.2063C83.3679 20.7984 82.8147 20.5693 82.2379 20.5693H30.7304C30.1536 20.5693 29.6004 20.7984 29.1926 21.2063C28.7847 21.6141 28.5556 22.1673 28.5556 22.7441V92.2696C28.5556 92.8464 28.7847 93.3996 29.1926 93.8075C29.6004 94.2153 30.1536 94.4445 30.7304 94.4445H82.2379C82.8147 94.4445 83.3679 94.2153 83.7758 93.8075C84.1836 93.3996 84.4128 92.8464 84.4128 92.2696V72.5035C84.4163 72.4001 84.46 72.302 84.5344 72.2301C84.6089 72.1582 84.7084 72.118 84.8119 72.1181C85.0184 72.1181 85.1974 70.9206 85.1974 71.1271V92.2559C85.1974 92.6445 85.1208 93.0293 84.9721 93.3884C84.8234 93.7474 84.6054 94.0737 84.3306 94.3485C84.0558 94.6233 83.7295 94.8413 83.3705 94.99C83.0114 95.1387 82.6266 95.2153 82.2379 95.2153H30.7304C30.3418 95.2153 29.9569 95.1387 29.5979 94.99C29.2388 94.8413 28.9126 94.6233 28.6378 94.3485C28.363 94.0737 28.145 93.7474 27.9963 93.3884C27.8475 93.0293 27.771 92.6445 27.771 92.2559V22.7441C27.7746 21.9603 28.0876 21.2097 28.6418 20.6555C29.196 20.1013 29.9466 19.7883 30.7304 19.7847H82.2379C83.0217 19.7883 83.7723 20.1013 84.3266 20.6555C84.8808 21.2097 85.1937 21.9603 85.1974 22.7441V56.564C85.1974 56.6662 85.1567 56.7642 85.0845 56.8365C85.0122 56.9088 84.9142 56.9494 84.8119 56.9494C84.5917 56.9494 84.4128 58.1882 84.4128 57.9405Z" fill="black"/>
</g>
<defs>
<clipPath id="clip0_293_703">
<rect width="116" height="116" fill="white"/>
</clipPath>
</defs>
</svg>
