<svg width="116" height="116" viewBox="0 0 116 116" fill="none" xmlns="http://www.w3.org/2000/svg">
<g clip-path="url(#clip0_306_1010)">
<path d="M25.375 21.7499L27.55 26.2811L32.625 27.1874L29 30.8124L29.9062 36.2499L25.375 33.8936L20.8438 36.2499L21.75 30.8124L18.125 27.1874L23.2 26.2811L25.375 21.7499Z" stroke="black" stroke-width="2.65326" stroke-linejoin="round"/>
<path d="M58.0002 14.5002L60.9002 20.3002L67.4252 21.2065L62.7127 25.7377L63.8002 32.2627L58.0002 29.1815L52.2002 32.2627L53.2877 25.7377L48.5752 21.2065L55.1002 20.3002L58.0002 14.5002Z" stroke="black" stroke-width="2.65326" stroke-linejoin="round"/>
<path d="M90.625 21.7499L92.8 26.2811L97.875 27.1874L94.25 30.8124L95.1562 36.2499L90.625 33.8936L86.0938 36.2499L87 30.8124L83.375 27.1874L88.45 26.2811L90.625 21.7499Z" stroke="black" stroke-width="2.65326" stroke-linejoin="round"/>
<path d="M32.625 62.5311C37.1296 62.5311 40.7812 58.8795 40.7812 54.3749C40.7812 49.8703 37.1296 46.2186 32.625 46.2186C28.1204 46.2186 24.4688 49.8703 24.4688 54.3749C24.4688 58.8795 28.1204 62.5311 32.625 62.5311Z" stroke="black" stroke-width="2.65326"/>
<path d="M20.8438 79.7498C20.8438 72.1373 26.825 66.156 32.625 66.156C38.425 66.156 44.4063 72.1373 44.4063 79.7498" stroke="black" stroke-width="2.65326" stroke-linecap="round"/>
<path d="M83.375 62.5311C87.8796 62.5311 91.5312 58.8795 91.5312 54.3749C91.5312 49.8703 87.8796 46.2186 83.375 46.2186C78.8704 46.2186 75.2188 49.8703 75.2188 54.3749C75.2188 58.8795 78.8704 62.5311 83.375 62.5311Z" stroke="black" stroke-width="2.65326"/>
<path d="M71.5938 79.7498C71.5938 72.1373 77.575 66.156 83.375 66.156C89.175 66.156 95.1563 72.1373 95.1563 79.7498" stroke="black" stroke-width="2.65326" stroke-linecap="round"/>
<path d="M58.0002 60.175C63.2055 60.175 67.4252 55.9552 67.4252 50.75C67.4252 45.5447 63.2055 41.325 58.0002 41.325C52.7949 41.325 48.5752 45.5447 48.5752 50.75C48.5752 55.9552 52.7949 60.175 58.0002 60.175Z" stroke="black" stroke-width="2.65326"/>
<path d="M64.7969 68.8748H51.2031C47.4493 68.8748 44.4062 72.1207 44.4062 76.1248V86.9998C44.4062 91.0038 47.4493 94.2498 51.2031 94.2498H64.7969C68.5507 94.2498 71.5938 91.0038 71.5938 86.9998V76.1248C71.5938 72.1207 68.5507 68.8748 64.7969 68.8748Z" stroke="black" stroke-width="2.65326"/>
<path d="M58 68.8748L54.375 75.2185L58 85.1873L61.625 75.2185L58 68.8748Z" fill="#ED1B2F" stroke="black" stroke-width="2.65326" stroke-linejoin="round"/>
</g>
<defs>
<clipPath id="clip0_306_1010">
<rect width="116" height="116" fill="white"/>
</clipPath>
</defs>
</svg>
