<svg width="116" height="116" viewBox="0 0 116 116" fill="none" xmlns="http://www.w3.org/2000/svg">
<g clip-path="url(#clip0_293_676)">
<path d="M23.3257 49.9737C23.3257 61.743 32.8666 71.2839 44.6358 71.2839L66.077 71.2839C69.3462 71.2839 71.9965 68.6336 71.9965 65.3644L71.9965 35.4255C71.9965 28.887 66.696 23.5865 60.1575 23.5865L29.2452 23.5865C25.9759 23.5865 23.3257 26.2367 23.3257 29.506L23.3257 49.9737Z" fill="#FFF1DA"/>
<path d="M70.6178 67.5384C69.2956 67.8346 68.0078 68.3831 66.8343 69.1496C63.777 71.0977 61.9983 73.8785 62.8616 75.3602C63.725 76.8418 66.9032 76.4629 69.9605 74.5148C71.1498 73.7754 72.2063 72.8304 73.0651 71.7383C73.4636 71.2106 73.5351 70.5531 73.2477 70.0616L72.1261 68.1368C71.8408 67.6437 71.2489 67.4092 70.6178 67.5384Z" fill="#D5D6DB"/>
<path d="M62.9403 41.2629C61.9815 41.4778 61.0476 41.8757 60.1966 42.4316C57.9803 43.8438 56.6898 45.8601 57.3153 46.9336C57.9408 48.0071 60.2463 47.7321 62.4624 46.32C63.3247 45.7836 64.0907 45.098 64.7135 44.306C65.0021 43.9235 65.0538 43.4472 64.8455 43.0908L64.0334 41.6971C63.8268 41.3397 63.3979 41.1693 62.9403 41.2629Z" fill="#D5D6DB"/>
<path d="M50.4666 42.3633C50.2532 42.3395 50.0256 42.3963 49.8283 42.5224L44.6223 45.84C44.1868 46.1167 44.0126 46.6495 44.2334 47.0302C44.284 47.1175 44.3531 47.192 44.437 47.2494L57.2683 56.0928L74.6276 45.0303L50.4666 42.3633Z" fill="#ED1B2F"/>
<path d="M105.345 41.1128L58.1029 70.8527L30.1535 81.9744L15.8997 84.8077L14.3315 82.1433L93.0761 33.5245C95.4228 32.0693 98.0371 31.1762 100.654 30.9357C101.801 30.8365 102.933 30.8746 104.024 31.0486C104.991 31.1953 105.909 31.4783 106.75 31.8892C107.688 32.3547 109.474 32.4084 110.053 33.3359C110.055 33.3344 111.419 37.5925 105.345 41.1128V41.1128Z" fill="#E1E6E9"/>
<path d="M58.7294 66.9176L38.2922 99.4978C38.037 99.9554 38.1885 100.468 38.6303 100.642C38.9015 100.75 39.2333 100.707 39.5121 100.53L44.7141 97.23C45.7146 96.595 46.6005 95.7884 47.3171 94.8603L86.9511 48.2638L58.7294 66.9176Z" fill="#ED1B2F"/>
<path d="M7.15802 65.8299C6.81711 65.7133 6.41141 65.7738 6.06893 65.9919L1.76888 68.7305C1.18296 69.1033 0.949487 69.8202 1.24722 70.3319C1.30394 70.4292 1.37763 70.5148 1.46596 70.5853L13.5137 80.2341L26.1807 72.3221L7.15802 65.8299Z" fill="#ED1B2F"/>
<path d="M17.5518 81.9735L11.0674 91.055C10.9723 91.1855 10.9947 91.3494 11.1173 91.4208C11.2057 91.4722 11.3265 91.4629 11.4246 91.3972L15.4431 88.8508C15.4743 88.831 15.5025 88.8062 15.5259 88.7779L25.0007 77.2578L17.5518 81.9735Z" fill="#ED1B2F"/>
<path d="M103.249 31.4402C102.125 31.2597 100.959 31.2211 99.7783 31.3249C98.6288 32.9321 97.8942 34.7375 97.6475 36.5611C97.6295 36.9274 97.9248 37.1911 98.3072 37.15C98.4261 37.1371 98.5443 37.0953 98.6508 37.0284L106.056 32.3129C105.19 31.886 104.245 31.5922 103.249 31.4402Z" fill="#ED1B2F"/>
<path d="M87.1104 40.1115L91.9453 37.0579L96.4489 44.7177L91.614 47.7713L87.1104 40.1115Z" fill="#D5D6DB"/>
<path d="M84.0675 43.1409C83.4848 43.51 83.2519 44.2194 83.5477 44.7253L84.027 45.5449C84.3422 46.0379 85.0618 46.1246 85.6345 45.7384C86.1794 45.3707 86.3989 44.7023 86.1362 44.2087L85.657 43.3891C85.3615 42.8836 84.6501 42.7724 84.0675 43.1409V43.1409Z" fill="#3A556A"/>
<path d="M79.7218 45.8397C79.1391 46.2087 78.9062 46.9182 79.202 47.4241L79.6813 48.2437C79.9965 48.7367 80.7161 48.8233 81.2888 48.4372C81.8337 48.0694 82.0532 47.401 81.7905 46.9075L81.3113 46.0879C81.0155 45.5826 80.3041 45.4713 79.7218 45.8397V45.8397Z" fill="#3A556A"/>
<path d="M75.3748 48.5393C74.7928 48.9088 74.5608 49.6174 74.8563 50.1228L75.3356 50.9424C75.6508 51.4354 76.3704 51.5221 76.943 51.1359C77.488 50.7682 77.7074 50.0998 77.4448 49.6063L76.9656 48.7867C76.6698 48.2808 75.9577 48.1701 75.3748 48.5393V48.5393Z" fill="#3A556A"/>
<path d="M71.0291 51.238C70.4471 51.6075 70.2151 52.3161 70.5106 52.8216L70.9899 53.6412C71.3051 54.1342 72.0247 54.2209 72.5973 53.8347C73.1423 53.4669 73.3617 52.7985 73.0991 52.305L72.6199 51.4854C72.3239 50.9796 71.6117 50.8689 71.0291 51.238V51.238Z" fill="#3A556A"/>
<path d="M66.6836 53.9369C66.1012 54.3066 65.869 55.0155 66.1648 55.5212L66.6443 56.3411C66.9399 56.8466 67.6517 56.9573 68.2341 56.5884C68.8166 56.2195 69.0492 55.5106 68.7536 55.0052L68.274 54.1852C67.9792 53.6793 67.2676 53.5679 66.6848 53.9361C66.6843 53.9364 66.684 53.9366 66.6836 53.9369Z" fill="#3A556A"/>
<path d="M62.3383 56.6357C61.756 57.0054 61.5238 57.7142 61.8195 58.2199L62.299 59.0399C62.5946 59.5453 63.3065 59.656 63.8889 59.2871C64.4714 58.9182 64.7039 58.2094 64.4083 57.7039L63.9288 56.884C63.634 56.378 62.9224 56.2666 62.3396 56.6349C62.3391 56.6352 62.3386 56.6355 62.3383 56.6357Z" fill="#3A556A"/>
<path d="M57.9921 59.3345C57.4098 59.7042 57.1776 60.413 57.4733 60.9187L57.9528 61.7386C58.2492 62.2436 58.9613 62.3532 59.5432 61.9838C60.124 61.615 60.3561 60.9077 60.0618 60.4029L59.5823 59.5829C59.2869 59.0771 58.5751 58.9658 57.9921 59.3345Z" fill="#3A556A"/>
<path d="M53.6464 62.0333C53.0641 62.403 52.8319 63.1119 53.1276 63.6176L53.6071 64.4375C53.9035 64.9425 54.6156 65.0521 55.1975 64.6827C55.7783 64.3139 56.0104 63.6066 55.7161 63.1017L55.2366 62.2818C54.9412 61.7759 54.2294 61.6646 53.6464 62.0333Z" fill="#3A556A"/>
<path d="M49.3002 64.732C48.7179 65.1017 48.4857 65.8106 48.7814 66.3162L49.2609 67.1362C49.5573 67.6412 50.2694 67.7507 50.8513 67.3813C51.4321 67.0126 51.6642 66.3053 51.3699 65.8004L50.8904 64.9805C50.5947 64.4748 49.8829 64.3635 49.3002 64.732Z" fill="#3A556A"/>
<path d="M44.9536 67.4315C44.3711 67.8004 44.1385 68.5092 44.4341 69.0147L44.4348 69.0158L44.9143 69.8357C45.2106 70.3407 45.9227 70.4503 46.5046 70.0809C47.0854 69.7121 47.3175 69.0048 47.0233 68.4999L46.5438 67.68C46.2483 67.1741 45.5365 67.0629 44.9536 67.4315Z" fill="#3A556A"/>
<path d="M40.6088 70.1295C40.0264 70.4984 39.7938 71.2072 40.0894 71.7127L40.09 71.7138L40.5696 72.5337C40.8659 73.0387 41.5781 73.1483 42.1599 72.7789C42.7408 72.4101 42.9728 71.7028 42.6786 71.1979L42.1991 70.378C41.9034 69.8723 41.1916 69.7611 40.6088 70.1295Z" fill="#3A556A"/>
</g>
<defs>
<clipPath id="clip0_293_676">
<rect width="116" height="116" fill="white"/>
</clipPath>
</defs>
</svg>
