<svg width="116" height="116" viewBox="0 0 116 116" fill="none" xmlns="http://www.w3.org/2000/svg">
<g clip-path="url(#clip0_306_1082)">
<path d="M94.25 10.8749H21.75C15.7439 10.8749 10.875 15.7438 10.875 21.7499V94.2499C10.875 100.256 15.7439 105.125 21.75 105.125H94.25C100.256 105.125 105.125 100.256 105.125 94.2499V21.7499C105.125 15.7438 100.256 10.8749 94.25 10.8749Z" stroke="black" stroke-width="2.1226"/>
<path d="M36.2502 27.5502C37.4514 27.5502 38.4252 26.5764 38.4252 25.3752C38.4252 24.174 37.4514 23.2002 36.2502 23.2002C35.049 23.2002 34.0752 24.174 34.0752 25.3752C34.0752 26.5764 35.049 27.5502 36.2502 27.5502Z" fill="black"/>
<path d="M47.1252 27.5502C48.3264 27.5502 49.3002 26.5764 49.3002 25.3752C49.3002 24.174 48.3264 23.2002 47.1252 23.2002C45.924 23.2002 44.9502 24.174 44.9502 25.3752C44.9502 26.5764 45.924 27.5502 47.1252 27.5502Z" fill="black"/>
<path d="M58.0002 27.5502C59.2014 27.5502 60.1752 26.5764 60.1752 25.3752C60.1752 24.174 59.2014 23.2002 58.0002 23.2002C56.799 23.2002 55.8252 24.174 55.8252 25.3752C55.8252 26.5764 56.799 27.5502 58.0002 27.5502Z" fill="black"/>
<path d="M34.075 43.5001H27.55C26.3488 43.5001 25.375 44.4739 25.375 45.6751V52.2001C25.375 53.4013 26.3488 54.3751 27.55 54.3751H34.075C35.2762 54.3751 36.25 53.4013 36.25 52.2001V45.6751C36.25 44.4739 35.2762 43.5001 34.075 43.5001Z" fill="#ED1B2F" stroke="black" stroke-width="2.1226"/>
<path d="M43.5 48.9375H65.25" stroke="black" stroke-width="2.1226" stroke-linecap="round"/>
<path d="M34.075 61.625H27.55C26.3488 61.625 25.375 62.5988 25.375 63.8V70.325C25.375 71.5262 26.3488 72.5 27.55 72.5H34.075C35.2762 72.5 36.25 71.5262 36.25 70.325V63.8C36.25 62.5988 35.2762 61.625 34.075 61.625Z" fill="#ED1B2F" stroke="black" stroke-width="2.1226"/>
<path d="M43.5 67.0625H59.8125" stroke="black" stroke-width="2.1226" stroke-linecap="round"/>
<path d="M83.375 84.281C91.8836 84.281 98.7813 77.3834 98.7813 68.8748C98.7813 60.3661 91.8836 53.4685 83.375 53.4685C74.8664 53.4685 67.9688 60.3661 67.9688 68.8748C67.9688 77.3834 74.8664 84.281 83.375 84.281Z" stroke="black" stroke-width="2.1226"/>
<path d="M82.4391 79.1869V77.3213C81.5063 77.2038 80.7462 76.9965 80.1589 76.6994C79.5785 76.3954 79.0741 75.9083 78.6457 75.2381C78.2243 74.5678 77.979 73.7491 77.9099 72.7817L79.7858 72.4294C79.9309 73.4312 80.1866 74.1671 80.5528 74.6369C81.0779 75.3003 81.7067 75.6699 82.4391 75.7459V69.8072C81.6721 69.6621 80.8879 69.365 80.0864 68.9159C79.4922 68.5842 79.0327 68.1247 78.7079 67.5374C78.3901 66.9501 78.2312 66.2833 78.2312 65.5371C78.2312 64.2105 78.701 63.136 79.6407 62.3138C80.2695 61.7611 81.2023 61.4225 82.4391 61.2981V60.4068H83.5377V61.2981C84.6225 61.4018 85.4827 61.7196 86.1184 62.2516C86.9337 62.9288 87.4243 63.8581 87.5901 65.0396L85.6624 65.3298C85.5518 64.5974 85.3203 64.0377 84.968 63.6508C84.6225 63.257 84.1457 62.9979 83.5377 62.8735V68.2525C84.4774 68.4875 85.0992 68.6706 85.4032 68.8019C85.9836 69.0575 86.457 69.3684 86.8232 69.7346C87.1894 70.1008 87.4692 70.5361 87.6627 71.0405C87.863 71.5449 87.9632 72.0908 87.9632 72.6781C87.9632 73.9702 87.5521 75.0481 86.7299 75.9118C85.9076 76.7754 84.8436 77.2384 83.5377 77.3006V79.1869H82.4391ZM82.4391 62.8528C81.7136 62.9633 81.1401 63.2535 80.7186 63.7234C80.304 64.1932 80.0967 64.7494 80.0967 65.392C80.0967 66.0277 80.2729 66.5597 80.6253 66.9881C80.9846 67.4165 81.5892 67.7585 82.4391 68.0142V62.8528ZM83.5377 75.7459C84.2632 75.6561 84.8609 75.3417 85.3307 74.8028C85.8075 74.2638 86.0458 73.5971 86.0458 72.8025C86.0458 72.1253 85.8766 71.5829 85.538 71.1753C85.2063 70.7607 84.5396 70.391 83.5377 70.0663V75.7459Z" fill="black"/>
</g>
<defs>
<clipPath id="clip0_306_1082">
<rect width="116" height="116" fill="white"/>
</clipPath>
</defs>
</svg>
