<svg width="116" height="116" viewBox="0 0 116 116" fill="none" xmlns="http://www.w3.org/2000/svg">
<path d="M30.9175 79.4103C30.9175 91.1796 40.4584 100.72 52.2276 100.72L103.692 100.72C106.962 100.72 109.612 98.0702 109.612 94.8009L109.612 35.439C109.612 28.9005 104.311 23.6 97.7728 23.6L36.837 23.6C33.5677 23.6 30.9175 26.2502 30.9175 29.5195L30.9175 79.4103Z" fill="#FFF1DA"/>
<rect x="18.9531" y="40.8824" width="81.0941" height="51.8471" fill="#E1E6E9"/>
<mask id="path-3-inside-1_293_677" fill="white">
<path d="M57.3198 98.3129H15.337C15.1316 98.3095 14.9289 98.2654 14.7406 98.1832C14.5523 98.101 14.3822 97.9823 14.2401 97.8339C14.0979 97.6856 13.9866 97.5106 13.9124 97.319C13.8383 97.1274 13.8029 96.923 13.8082 96.7176V36.6149C13.8116 36.2105 13.9738 35.8237 14.2598 35.5377C14.5457 35.2518 14.9326 35.0896 15.337 35.0861H17.0519C17.0455 34.9799 17.0455 34.8733 17.0519 34.7671C17.045 34.6608 17.045 34.5542 17.0519 34.448H15.337C14.7598 34.4515 14.2073 34.6823 13.7992 35.0904C13.391 35.4985 13.1602 36.0511 13.1567 36.6282V96.7176C13.1567 97.2959 13.3864 97.8504 13.7953 98.2593C14.2042 98.6682 14.7587 98.8979 15.337 98.8979H57.8117C57.6227 98.7254 57.4573 98.5287 57.3198 98.3129ZM103.663 34.4347H86.0351V33.3313C86.0351 32.4273 86.0351 31.5233 86.0351 30.6725V21.7654C85.9645 20.3057 85.3349 18.9291 84.2768 17.9209C83.2187 16.9128 81.8133 16.3505 80.3519 16.3505C78.8904 16.3505 77.485 16.9128 76.4269 17.9209C75.3688 18.9291 74.7392 20.3057 74.6686 21.7654V30.5129C74.6686 31.4701 74.6686 32.414 74.7484 33.3712V34.4879H16.2543C16.2612 34.5941 16.2612 34.7007 16.2543 34.8069C16.2604 34.9132 16.2604 35.0197 16.2543 35.126H59.181V98.3129H56.3626C56.2335 98.5503 56.0674 98.7657 55.8707 98.9511H103.663C103.954 98.9511 104.242 98.893 104.51 98.7802C104.778 98.6673 105.021 98.5019 105.224 98.2938C105.427 98.0857 105.586 97.839 105.693 97.5683C105.799 97.2976 105.85 97.0084 105.843 96.7176V36.6149C105.84 36.0378 105.609 35.4853 105.201 35.0771C104.793 34.669 104.24 34.4382 103.663 34.4347ZM75.4264 21.7255C75.4226 20.7289 75.7153 19.7536 76.2672 18.9237C76.8191 18.0938 77.6053 17.4468 78.5259 17.0649C79.4465 16.683 80.4598 16.5834 81.4371 16.7789C82.4144 16.9744 83.3115 17.4561 84.0144 18.1627C84.4836 18.6268 84.8558 19.1797 85.1091 19.7891C85.3625 20.3985 85.492 21.0523 85.49 21.7122V30.6326C85.4899 33.6866 85.2499 36.7359 84.7721 39.7524L83.2433 49.364H77.7529L76.1974 39.8986C75.6949 36.7817 75.4371 33.6302 75.4264 30.4731V21.7255ZM93.5861 54.5753H67.5297V50.0021H93.5861V54.5753ZM93.5861 55.2267V56.3434C93.5479 57.9021 92.8999 59.3836 91.7814 60.4699C90.6628 61.5561 89.1629 62.1604 87.6038 62.1529H73.4589C71.9055 62.1604 70.4109 61.5594 69.2952 60.4785C68.1796 59.3976 67.5315 57.9228 67.4898 56.37V55.2533L93.5861 55.2267ZM105.192 96.7176C105.192 97.1243 105.031 97.5146 104.745 97.8034C104.459 98.0922 104.07 98.2563 103.663 98.2598H59.7925V35.0861H74.9611L75.0542 36.0433C75.1738 37.3727 75.3466 38.7021 75.5593 40.0315L77.0881 49.3374H68.1412C67.9766 49.3356 67.8133 49.3667 67.6609 49.4289C67.5085 49.4911 67.37 49.5831 67.2536 49.6995C67.1372 49.8159 67.0452 49.9543 66.9831 50.1067C66.9209 50.2592 66.8898 50.4225 66.8916 50.5871V56.1307C66.8916 57.8936 67.5919 59.5843 68.8384 60.8309C70.085 62.0775 71.7757 62.7778 73.5386 62.7778H87.6038C89.3667 62.7778 91.0574 62.0775 92.304 60.8309C93.5505 59.5843 94.2509 57.8936 94.2509 56.1307V50.6136C94.2316 50.2862 94.0919 49.9775 93.8588 49.7469C93.6257 49.5162 93.3155 49.3798 92.9879 49.364H83.908L85.4236 39.8454C85.6097 38.6091 85.7692 37.3328 85.8889 36.0433L85.9819 35.0861H103.663C104.067 35.0896 104.454 35.2518 104.74 35.5377C105.026 35.8237 105.188 36.2105 105.192 36.6149V96.7176Z"/>
</mask>
<path d="M57.3198 98.3129H15.337C15.1316 98.3095 14.9289 98.2654 14.7406 98.1832C14.5523 98.101 14.3822 97.9823 14.2401 97.8339C14.0979 97.6856 13.9866 97.5106 13.9124 97.319C13.8383 97.1274 13.8029 96.923 13.8082 96.7176V36.6149C13.8116 36.2105 13.9738 35.8237 14.2598 35.5377C14.5457 35.2518 14.9326 35.0896 15.337 35.0861H17.0519C17.0455 34.9799 17.0455 34.8733 17.0519 34.7671C17.045 34.6608 17.045 34.5542 17.0519 34.448H15.337C14.7598 34.4515 14.2073 34.6823 13.7992 35.0904C13.391 35.4985 13.1602 36.0511 13.1567 36.6282V96.7176C13.1567 97.2959 13.3864 97.8504 13.7953 98.2593C14.2042 98.6682 14.7587 98.8979 15.337 98.8979H57.8117C57.6227 98.7254 57.4573 98.5287 57.3198 98.3129ZM103.663 34.4347H86.0351V33.3313C86.0351 32.4273 86.0351 31.5233 86.0351 30.6725V21.7654C85.9645 20.3057 85.3349 18.9291 84.2768 17.9209C83.2187 16.9128 81.8133 16.3505 80.3519 16.3505C78.8904 16.3505 77.485 16.9128 76.4269 17.9209C75.3688 18.9291 74.7392 20.3057 74.6686 21.7654V30.5129C74.6686 31.4701 74.6686 32.414 74.7484 33.3712V34.4879H16.2543C16.2612 34.5941 16.2612 34.7007 16.2543 34.8069C16.2604 34.9132 16.2604 35.0197 16.2543 35.126H59.181V98.3129H56.3626C56.2335 98.5503 56.0674 98.7657 55.8707 98.9511H103.663C103.954 98.9511 104.242 98.893 104.51 98.7802C104.778 98.6673 105.021 98.5019 105.224 98.2938C105.427 98.0857 105.586 97.839 105.693 97.5683C105.799 97.2976 105.85 97.0084 105.843 96.7176V36.6149C105.84 36.0378 105.609 35.4853 105.201 35.0771C104.793 34.669 104.24 34.4382 103.663 34.4347ZM75.4264 21.7255C75.4226 20.7289 75.7153 19.7536 76.2672 18.9237C76.8191 18.0938 77.6053 17.4468 78.5259 17.0649C79.4465 16.683 80.4598 16.5834 81.4371 16.7789C82.4144 16.9744 83.3115 17.4561 84.0144 18.1627C84.4836 18.6268 84.8558 19.1797 85.1091 19.7891C85.3625 20.3985 85.492 21.0523 85.49 21.7122V30.6326C85.4899 33.6866 85.2499 36.7359 84.7721 39.7524L83.2433 49.364H77.7529L76.1974 39.8986C75.6949 36.7817 75.4371 33.6302 75.4264 30.4731V21.7255ZM93.5861 54.5753H67.5297V50.0021H93.5861V54.5753ZM93.5861 55.2267V56.3434C93.5479 57.9021 92.8999 59.3836 91.7814 60.4699C90.6628 61.5561 89.1629 62.1604 87.6038 62.1529H73.4589C71.9055 62.1604 70.4109 61.5594 69.2952 60.4785C68.1796 59.3976 67.5315 57.9228 67.4898 56.37V55.2533L93.5861 55.2267ZM105.192 96.7176C105.192 97.1243 105.031 97.5146 104.745 97.8034C104.459 98.0922 104.07 98.2563 103.663 98.2598H59.7925V35.0861H74.9611L75.0542 36.0433C75.1738 37.3727 75.3466 38.7021 75.5593 40.0315L77.0881 49.3374H68.1412C67.9766 49.3356 67.8133 49.3667 67.6609 49.4289C67.5085 49.4911 67.37 49.5831 67.2536 49.6995C67.1372 49.8159 67.0452 49.9543 66.9831 50.1067C66.9209 50.2592 66.8898 50.4225 66.8916 50.5871V56.1307C66.8916 57.8936 67.5919 59.5843 68.8384 60.8309C70.085 62.0775 71.7757 62.7778 73.5386 62.7778H87.6038C89.3667 62.7778 91.0574 62.0775 92.304 60.8309C93.5505 59.5843 94.2509 57.8936 94.2509 56.1307V50.6136C94.2316 50.2862 94.0919 49.9775 93.8588 49.7469C93.6257 49.5162 93.3155 49.3798 92.9879 49.364H83.908L85.4236 39.8454C85.6097 38.6091 85.7692 37.3328 85.8889 36.0433L85.9819 35.0861H103.663C104.067 35.0896 104.454 35.2518 104.74 35.5377C105.026 35.8237 105.188 36.2105 105.192 36.6149V96.7176Z" fill="black" stroke="black" stroke-width="8" mask="url(#path-3-inside-1_293_677)"/>
<path d="M93.6127 55.2267V56.3434C93.5744 57.9068 92.9227 59.3923 91.7984 60.4792C90.6742 61.5662 89.1675 62.1674 87.6037 62.1529H73.4588C71.9054 62.1605 70.4109 61.5594 69.2952 60.4785C68.1795 59.3976 67.5314 57.9229 67.4897 56.37V55.2533L93.6127 55.2267Z" fill="#ED1B2F"/>
<path d="M87.2317 67.4706H73.9376C73.2378 67.4875 72.5713 67.773 72.0762 68.268C71.5812 68.763 71.2957 69.4295 71.2788 70.1294V77.0025C71.2786 77.7139 71.5566 78.3972 72.0534 78.9064C72.5502 79.4156 73.2264 79.7104 73.9376 79.7278H87.2317C87.943 79.7104 88.6192 79.4156 89.116 78.9064C89.6128 78.3972 89.8908 77.7139 89.8906 77.0025V70.1959C89.8908 69.4845 89.6128 68.8011 89.116 68.2919C88.6192 67.7827 87.943 67.4879 87.2317 67.4706ZM89.3056 77.0689C89.3056 77.619 89.0871 78.1465 88.6982 78.5354C88.3093 78.9243 87.7818 79.1428 87.2317 79.1428H73.9376C73.3899 79.1393 72.8658 78.9193 72.4798 78.5307C72.0937 78.1422 71.877 77.6167 71.877 77.0689V70.2092C71.877 69.6614 72.0937 69.1359 72.4798 68.7474C72.8658 68.3588 73.3899 68.1388 73.9376 68.1353H87.2317C87.7795 68.1353 88.305 68.3519 88.6935 68.738C89.0821 69.1241 89.3021 69.6482 89.3056 70.1959V77.0689Z" fill="black"/>
<path d="M83.6153 73.6656C83.6162 73.7077 83.6084 73.7495 83.5924 73.7883C83.5764 73.8272 83.5525 73.8624 83.5223 73.8917C83.4955 73.9257 83.4611 73.953 83.4218 73.9715C83.3826 73.99 83.3396 73.999 83.2963 73.998H77.8191C77.7333 73.9946 77.6521 73.958 77.5927 73.8961C77.5332 73.8341 77.5 73.7515 77.5001 73.6656C77.4974 73.6234 77.5044 73.5811 77.5205 73.5419C77.5367 73.5028 77.5615 73.4678 77.5931 73.4397C77.6539 73.3811 77.7347 73.3478 77.8191 73.3466H83.2963C83.3809 73.3466 83.4621 73.3802 83.5219 73.44C83.5817 73.4999 83.6153 73.581 83.6153 73.6656Z" fill="black"/>
<path d="M47.7479 59.6802L37.9634 54.3626C37.4355 54.0668 36.8404 53.9115 36.2352 53.9115C35.63 53.9115 35.035 54.0668 34.507 54.3626L24.7624 59.6802C24.1896 59.9871 23.7105 60.4433 23.3759 61.0003C23.0412 61.5573 22.8634 62.1944 22.8613 62.8442V77.3747C22.8613 78.3337 23.2423 79.2535 23.9204 79.9316C24.5986 80.6097 25.5183 80.9907 26.4773 80.9907H46.0064C46.9664 80.9911 47.888 80.6138 48.5722 79.9405C48.9122 79.6051 49.1824 79.2057 49.3672 78.7653C49.5521 78.3249 49.6478 77.8523 49.649 77.3747V62.8442C49.6413 62.1956 49.4612 61.5607 49.1271 61.0047C48.793 60.4487 48.317 59.9915 47.7479 59.6802ZM49.0773 77.3747C49.0739 78.1893 48.7496 78.9698 48.1748 79.5471C47.6001 80.1243 46.821 80.452 46.0064 80.4589H26.4773C25.6616 80.4554 24.8806 80.1289 24.305 79.5509C23.7295 78.9729 23.4064 78.1904 23.4064 77.3747V62.8708C23.4098 62.327 23.5582 61.7939 23.8363 61.3266C24.1144 60.8592 24.5121 60.4744 24.9884 60.212L34.7729 54.8943C35.2225 54.6472 35.7227 54.5063 36.2352 54.4822C36.7476 54.4839 37.251 54.6167 37.6976 54.8678L47.4554 60.1854C47.9331 60.4487 48.3332 60.8329 48.6155 61.2996C48.8979 61.7662 49.0525 62.2989 49.064 62.8442L49.0773 77.3747Z" fill="black"/>
<path d="M47.4686 60.1455L37.7107 54.8279C37.2641 54.5768 36.7607 54.4441 36.2484 54.4424C35.7345 54.4521 35.2297 54.5794 34.7727 54.8146L24.9883 60.1322C24.5119 60.3947 24.1142 60.7794 23.8361 61.2468C23.5581 61.7142 23.4097 62.2472 23.4063 62.7911V77.3747C23.4062 78.1904 23.7294 78.9729 24.3049 79.5509C24.8804 80.1289 25.6615 80.4554 26.4772 80.4589H46.0062C46.8208 80.452 47.5999 80.1243 48.1747 79.5471C48.7495 78.9698 49.0737 78.1893 49.0772 77.3747V62.8708C49.0774 62.3142 48.9283 61.7677 48.6453 61.2883C48.3624 60.809 47.956 60.4143 47.4686 60.1455ZM36.2351 76.8828C35.0888 76.8855 33.9775 76.4888 33.092 75.761C32.2064 75.0332 31.6021 74.0196 31.3827 72.8946C31.3547 72.8265 31.3547 72.75 31.3827 72.6819C31.4358 72.6231 31.5053 72.5814 31.5821 72.5622C31.6535 72.5578 31.7241 72.5797 31.7805 72.6238C31.8368 72.6679 31.875 72.7311 31.8879 72.8015C32.0055 73.3707 32.2353 73.9108 32.564 74.3901C32.8927 74.8695 33.3137 75.2785 33.8022 75.5933C34.4055 75.9963 35.0988 76.2444 35.8207 76.3157C36.5427 76.3869 37.2711 76.2791 37.9415 76.0017C38.6119 75.7244 39.2035 75.2861 39.6641 74.7256C40.1248 74.1651 40.4401 73.4997 40.5822 72.7882C40.5964 72.723 40.6325 72.6645 40.6845 72.6226C40.7365 72.5806 40.8013 72.5578 40.8681 72.5578C40.9349 72.5578 40.9997 72.5806 41.0517 72.6226C41.1037 72.6645 41.1397 72.723 41.1539 72.7882C40.94 73.9372 40.3313 74.9752 39.4332 75.7229C38.535 76.4706 37.4037 76.8809 36.2351 76.8828Z" fill="#ED1B2F"/>
<path d="M41.1539 72.8813C40.9188 74.0084 40.3027 75.0201 39.4093 75.7465C38.516 76.4728 37.3998 76.8694 36.2484 76.8695C35.1022 76.8722 33.9908 76.4755 33.1053 75.7477C32.2198 75.0199 31.6154 74.0063 31.3961 72.8813C31.368 72.8132 31.368 72.7367 31.3961 72.6686C31.4492 72.6098 31.5186 72.5681 31.5955 72.5489C31.6669 72.5445 31.7374 72.5664 31.7938 72.6105C31.8501 72.6546 31.8884 72.7178 31.9012 72.7882C32.0188 73.3574 32.2487 73.8975 32.5774 74.3768C32.9061 74.8562 33.327 75.2652 33.8156 75.58C34.4176 75.98 35.1087 76.2261 35.8282 76.2965C36.5476 76.3669 37.2733 76.2596 37.9415 75.9839C38.6097 75.7082 39.2 75.2726 39.6604 74.7154C40.1209 74.1582 40.4374 73.4964 40.5823 72.7882C40.5964 72.7229 40.6325 72.6645 40.6845 72.6225C40.7365 72.5806 40.8013 72.5578 40.8681 72.5578C40.9349 72.5578 40.9997 72.5806 41.0517 72.6225C41.1037 72.6645 41.1398 72.7229 41.1539 72.7882V72.8813Z" fill="black"/>
</svg>
