<svg width="116" height="116" viewBox="0 0 116 116" fill="none" xmlns="http://www.w3.org/2000/svg">
<g clip-path="url(#clip0_293_720)">
<path d="M25.4116 70.9969C25.4116 82.7661 34.9525 92.307 46.7218 92.307L89.1331 92.307C92.4024 92.307 95.0526 89.6567 95.0526 86.3875L95.0526 35.8978C95.0526 29.3593 89.7521 24.0588 83.2136 24.0588L31.3311 24.0588C28.0618 24.0588 25.4116 26.7091 25.4116 29.9783L25.4116 70.9969Z" fill="#FFF1DA"/>
<rect x="40.7061" y="41.7059" width="44.7059" height="52.9412" fill="#D9D9D9"/>
<path d="M67.4354 45.8H52.4824V46.4706H67.4354V45.8Z" fill="black"/>
<path d="M70.7295 87.5529H68.9648V88.2235H70.7295V87.5529Z" fill="black"/>
<path d="M60.8356 87.5529H54.6826V88.2235H60.8356V87.5529Z" fill="black"/>
<path d="M74.0236 91.9412H67.8589V92.6118H74.0236V91.9412Z" fill="black"/>
<path d="M59.7412 91.9412H51.3765V92.6118H59.7412V91.9412Z" fill="black"/>
<path d="M94.8237 56.1294C94.8025 56.0964 94.7749 56.0679 94.7426 56.0457C94.7103 56.0235 94.6738 56.0079 94.6354 56L88.306 54.5882V35.1412C88.3061 35.0527 88.2717 34.9677 88.2103 34.904C88.1488 34.8403 88.065 34.8031 87.9766 34.8H39.6236C38.9517 34.8031 38.3084 35.0722 37.8344 35.5484C37.3603 36.0247 37.0942 36.6693 37.0942 37.3412V96.6588C37.0942 97.3308 37.3603 97.9753 37.8344 98.4516C38.3084 98.9278 38.9517 99.1969 39.6236 99.2H87.9648C88.0101 99.2017 88.0552 99.194 88.0973 99.1774C88.1395 99.1608 88.1777 99.1358 88.2097 99.1037C88.2418 99.0717 88.2668 99.0335 88.2834 98.9913C88.3 98.9492 88.3077 98.9041 88.306 98.8588V77.6824L88.8472 77.5412C89.2777 77.4016 89.6645 77.1525 89.9697 76.8184C90.2749 76.4843 90.4881 76.0766 90.5884 75.6353L94.8942 56.4118C94.9011 56.3126 94.8764 56.2137 94.8237 56.1294ZM39.6236 35.4706H87.6354V39.2118H39.6236C39.1433 39.1938 38.6883 38.9916 38.3531 38.6471C38.1805 38.4764 38.0437 38.2729 37.9508 38.0487C37.8579 37.8245 37.8106 37.5839 37.8119 37.3412C37.8116 36.8551 38.0006 36.388 38.3388 36.0388C38.677 35.6897 39.1378 35.4859 39.6236 35.4706ZM39.6236 98.5412C39.1285 98.535 38.6557 98.3339 38.3078 97.9816C37.9599 97.6293 37.7648 97.154 37.7648 96.6588V39.3529L38.7884 39.7176C39.0563 39.8149 39.3386 39.8666 39.6236 39.8706H87.6354V54.4235L73.906 51.3882L75.2942 50.3882C75.7 50.0952 76.0101 49.6889 76.1858 49.2203C76.3615 48.7516 76.3949 48.2415 76.2818 47.754C76.1687 47.2665 75.9142 46.8232 75.5501 46.4798C75.1861 46.1363 74.7287 45.908 74.2354 45.8235C73.5738 45.7236 72.8991 45.8838 72.3531 46.2706C72.0826 46.4637 71.8529 46.7081 71.6769 46.99C71.501 47.2719 71.3823 47.5857 71.3277 47.9134C71.2731 48.2412 71.2836 48.5765 71.3586 48.9002C71.4336 49.2239 71.5716 49.5297 71.7648 49.8C71.956 50.07 72.2002 50.2981 72.4825 50.4706L72.9413 50.7529L72.1295 54.4L71.2119 53.7882C68.6935 52.1534 65.7555 51.283 62.7531 51.2824H62.6942C59.5754 51.2762 56.5252 52.198 53.9319 53.9306C51.3385 55.6631 49.3192 58.128 48.131 61.0116C46.9427 63.8953 46.6392 67.0672 47.2591 70.1238C47.8789 73.1805 49.3941 75.9836 51.6119 78.1765C53.0653 79.6417 54.7957 80.803 56.7025 81.5928C58.6092 82.3826 60.654 82.7849 62.7178 82.7765C63.4136 82.7685 64.1086 82.7253 64.8001 82.6471L65.8825 82.4941L62.3531 98.6L39.6236 98.5412ZM73.8354 50.1765C73.4673 50.1765 73.1074 50.0671 72.8015 49.8624C72.4956 49.6576 72.2573 49.3666 72.117 49.0262C71.9767 48.6859 71.9405 48.3116 72.0132 47.9507C72.0859 47.5898 72.2641 47.2586 72.5252 46.9991C72.7864 46.7396 73.1187 46.5635 73.48 46.4931C73.8414 46.4227 74.2155 46.4612 74.5549 46.6037C74.8944 46.7462 75.1839 46.9863 75.3867 47.2935C75.5895 47.6007 75.6966 47.9613 75.6942 48.3294C75.6911 48.8204 75.4939 49.2901 75.1457 49.6362C74.7974 49.9823 74.3264 50.1765 73.8354 50.1765ZM68.4237 71.1177H57.0472L56.9413 70.4706C56.5766 68.2146 56.5766 65.9148 56.9413 63.6588L57.0472 63.0118H70.2354L68.4237 71.1177ZM60.706 53.4706C58.7957 55.8975 57.4277 58.7057 56.6942 61.7059L56.5531 62.2941H48.3648L48.8119 61.2118C49.7748 58.9138 51.292 56.8901 53.228 55.3217C55.1639 53.7532 57.4583 52.6888 59.906 52.2235L61.906 51.8353L60.706 53.4706ZM62.1884 52.7294L62.7648 52.0941L63.3295 52.7294C65.5381 55.1919 67.1485 58.1309 68.0354 61.3176L68.306 62.3177H57.1766L57.4354 61.3412C58.3082 58.1372 59.9153 55.1806 62.1295 52.7059L62.1884 52.7294ZM56.3531 62.9529L56.2236 63.8235C55.9178 65.9301 55.9178 68.0699 56.2236 70.1765L56.3531 71.0588H48.2001L48.0589 70.4706C47.5254 68.1916 47.5254 65.8202 48.0589 63.5412L48.2001 62.9529H56.3531ZM56.4942 71.7294L56.6354 72.3059C57.3969 75.3036 58.7841 78.1062 60.706 80.5294L61.8825 82.1647L59.8825 81.7882C57.4347 81.323 55.1404 80.2586 53.2044 78.6901C51.2685 77.1216 49.7513 75.098 48.7884 72.8L48.3413 71.7294H56.4942ZM57.4236 72.7059L57.1766 71.7294H68.2942L66.0589 81.7059L65.5766 81.8C64.7997 81.9459 64.0134 82.0363 63.2237 82.0706H62.8942L62.6472 81.8118C60.1718 79.2612 58.3758 76.1303 57.4236 72.7059ZM68.9413 62.2941L68.8001 61.7059C68.0667 58.7057 66.6987 55.8975 64.7884 53.4706L63.5413 51.8706L65.5295 52.2471C67.7284 52.6531 69.8075 53.5499 71.6119 54.8706L72.0119 55.1765L70.3884 62.2941H68.9413ZM87.6472 98.5412H63.0589L66.5884 82.2235L67.0236 82.0941C74.4119 79.7412 75.0119 74.0706 75.906 70.5294L75.2589 70.3882C75.2589 70.6 75.1648 70.8353 75.1178 71.0941C75.0707 71.3529 75.0354 71.5059 74.9766 71.7294C74.3295 74.7647 73.0707 79.0353 68.0707 81.0353L66.7413 81.5529L68.9413 71.7294L69.0825 71.0941L69.5295 69.1059L75.2707 70.3882C75.2707 70.2471 75.3413 70.1176 75.3648 70L75.9766 70.2824C75.9712 70.3646 75.9712 70.4472 75.9766 70.5294L83.9178 72.2941L83.0589 76.2706C83.0404 76.307 83.0307 76.3473 83.0307 76.3882C83.0307 76.4291 83.0404 76.4695 83.0589 76.5059C83.0808 76.5454 83.1111 76.5797 83.1477 76.6061C83.1843 76.6325 83.2263 76.6505 83.2707 76.6588L87.6354 77.6353L87.6472 98.5412ZM89.9178 75.5882C89.8157 75.9915 89.5822 76.3493 89.2541 76.6049C88.926 76.8606 88.522 76.9996 88.106 77C87.9925 77.0096 87.8784 77.0096 87.7648 77L83.8001 76.1177L84.6119 72.4941L88.5766 73.3765C89.042 73.5014 89.4412 73.8011 89.6911 74.2132C89.9409 74.6252 90.0221 75.1178 89.9178 75.5882ZM90.3766 73.5647L89.4589 73C89.2177 72.8446 88.9508 72.7331 88.6707 72.6706L69.6942 68.4471L71.4825 60.4118L92.2707 65.0353L90.3766 73.5647ZM92.4707 64.4L71.6236 59.7647L73.3766 51.9294L94.1648 56.5647L92.4707 64.4Z" fill="black"/>
<path d="M75.2942 70.3882C75.2942 70.6 75.2001 70.8353 75.153 71.0941H69.106L69.553 69.1059L75.2942 70.3882Z" fill="#ED1B2F"/>
<path d="M75.0117 71.7294C74.3646 74.7647 73.1058 79.0353 68.1058 81.0353L66.7764 81.5529L68.9411 71.7294H75.0117Z" fill="#ED1B2F"/>
<path d="M61.8825 82.1647L59.8825 81.7882C57.4347 81.323 55.1404 80.2586 53.2044 78.6901C51.2685 77.1216 49.7513 75.098 48.7884 72.8L48.3413 71.7294H56.4707L56.6119 72.3059C57.3804 75.3055 58.7757 78.1082 60.706 80.5294L61.8825 82.1647Z" fill="#ED1B2F"/>
<path d="M68.2826 71.7294L66.0591 81.7059L65.5768 81.8C64.7999 81.9459 64.0136 82.0363 63.2238 82.0706H62.8944L62.6473 81.8118C60.1907 79.2593 58.4112 76.1332 57.4709 72.7177L57.1768 71.7294H68.2826Z" fill="#ED1B2F"/>
<path d="M70.2356 62.9529L68.4239 71.1176H57.0474L56.9415 70.4706C56.5768 68.2146 56.5768 65.9148 56.9415 63.6588L57.0474 63.0118L70.2356 62.9529Z" fill="#ED1B2F"/>
<path d="M56.2235 70.1765L56.353 71.0588H48.2L48.0588 70.4706C47.5253 68.1916 47.5253 65.8202 48.0588 63.5412L48.2 62.9529H56.353L56.2235 63.8235C55.9177 65.9301 55.9177 68.0699 56.2235 70.1765Z" fill="#ED1B2F"/>
<path d="M61.8824 51.8353L60.7059 53.4706C58.7956 55.8975 57.4276 58.7057 56.6942 61.7059L56.553 62.2941H48.3647L48.8118 61.2118C49.7747 58.9138 51.2919 56.8901 53.2279 55.3217C55.1638 53.7532 57.4582 52.6888 59.9059 52.2235L61.8824 51.8353Z" fill="#ED1B2F"/>
<path d="M71.9768 55.1529L70.3886 62.2941H68.9415L68.8003 61.7059C68.0669 58.7057 66.6989 55.8975 64.7886 53.4706L63.5415 51.8706L65.5297 52.2471C67.7287 52.6531 69.8077 53.5499 71.6121 54.8706L71.9768 55.1529Z" fill="#ED1B2F"/>
<path d="M68.2356 62.2941H57.1768L57.4356 61.3176C58.3151 58.121 59.9262 55.1727 62.1415 52.7059L62.7179 52.0706L63.2826 52.7059C65.4912 55.1684 67.1016 58.1074 67.9885 61.2941L68.2356 62.2941Z" fill="#ED1B2F"/>
<path d="M75.3178 71.0941H68.4707V71.7412H75.3178V71.0941Z" fill="black"/>
</g>
<defs>
<clipPath id="clip0_293_720">
<rect width="116" height="116" fill="white"/>
</clipPath>
</defs>
</svg>
